<?xml version="1.0" encoding="UTF-8"?>
<svg version="1.1" viewBox="0 0 2000 2000" width="1280" height="1280" xmlns="http://www.w3.org/2000/svg">
<path transform="translate(500,592)" d="m0 0h234l3 3 12 63 8 36 5 24 3 18 6 31 5 23 5 26 5 25 2 6h3l11-15 11-17 11-16 9-14 3-6-2-5-9-6-8-8-11-15-5-9-4-12-1-13 4-15 1-7 5 5 10 14 12 13 12 12 10 7 3 2 4-1 1-1-1-7-4-6-13-13-7-9-5-5-7-11-6-11-9-19-3-12v-25l3-24h3l9 27 10 19 13 17 13 16 7 7 11 9 11 10 3 2 4-1 7-10 13-18 15-22 9-13 22-33 10-14 3-2h108l48 1-2 11-9 41-11 49-11 51-15 70-4 15-2 7 1 5-1 21-5 19-3 3h-4l-2 16-7 37-8 33-14 67-12 55-14 63-6 29-5 19-1 2-72 1h-75l-3-1 1-10 13-61 13-58 6-27 6-26 2-6-13 9-10 9-9 9-8 12-3 12h-2l-3-8-2-16-21 21-14 11-13 10-13 9-11 9-12 9-14 10-21 16-11 7h-2l-2-11-9-54-4-26-5-30-4-23-8-44-4-12-1-2h-2l-4 10-7 30-8 39-15 69-10 47-6 30-8 34-3 3h-138l-11-1-1-3 11-51 8-37 4-18 10-47 6-28 7-33 17-77 8-36 10-48 11-48 8-38 6-28 5-23 2-11-1-7-12-15-10-14-11-13-11-14-14-19-3-4z" fill="#F65A58"/>
<path transform="translate(1444,582)" d="m0 0 60 1 10 4 9 7 8 10 5 10 1 10-3 17-15 69-18 81-12 57-3 9-5-2-23-14-32-20-19-12-25-16-24-15-9-6 2-6 3-18 9-43-3-2h-32l-8 1-8 24-8 14-9 11-12 13-14 11-18 14-14 10-5 5v4l7 1 18-12 9-7 14-12 8-7 12-11 14-19 7-12 4-10 2-10 2-1 6 14 1 6v17l-2 13-5 12-7 11-11 13-11 12-11 9-13 11-17 12-18 12-15 9-9 6-8 24-5 24v10l20 8 24 9 30 12 16 8 9 4 9-1 18 10 23 14 20 13 25 16 21 13 16 10 8 7v8l-14 67-19 85-2 2h-377l-13-4-1-1v-7l31-141 19-86 13-62 2-12 6-23 9-40 8-38 13-58 15-69 17-78 2-7 3-1zm-191 120-3 2-5 21-5 27v6l6-4 8-7 10-8 13-11 15-14 6-7 1-4-15-1zm-59 264-3 5 1 4 15 7 30 13 25 11 24 11 9 3 2-7v-5l-15-8-20-9-20-8-26-10zm-10 47-4 9-12 56-1 11 1 1 45 1h41l25-1 3-9 2-9v-8l-7-6-24-13-31-16-33-15z" fill="#0447A4"/>
<path transform="translate(1078,921)" d="m0 0 2 2v5l1 1 1 10 2 2v3h2l3 6v2l3 1 3 5v2l4 2 5 5 10 7 2 1v2l5 2 6 4 6 3v2l5 2 14 8 9 4v2l10 3 6 3 5 1 1 5-4 15-11 53v5l45 1h41l25-1 4-17 2-5 7 3v2l5 2 9 8 8 6 2 1v2l4 2 16 16 9 11 11 16 11 24 4 13 4 7 3-9 3-18 1-24v-14l4-1 3 5v3h2l3 4 2-9 2-34-3-25-7-19-6-11-2-5h-2l-4-8-5-5-5-3v-2l-4-2-5-5-11-9-12-7-10-6-14-8 1-3 5 1 28 16 20 13 60 38 14 9 7 6v8l-14 67-19 85-2 2h-377l-13-4-1-1v-7l31-141 19-86 10-48z" fill="#0447A4"/>
<path transform="translate(969,592)" d="m0 0h108l48 1-2 11-9 41-11 49-11 51-15 70-4 15-2 7 1 5-1 21-5 19-3 3h-4l-2 16-3 17-3 5h-2l-8-20-8-13v-2h-2l-6-7-11-8-7-3-14-9-15-9-28-13-20-9-13-7 3-1 7-1 2-5-1-18-4-10-7-6-3-2v-3l-4-1-19-11-12-7-11-6-7-5 4-7 7 1 13 7 18 13 17 10 10 4h12l2-3h2l1-17v-5h-2l-3-6v-2h-2l-4-6-6-5-19-12-14-8-5-5v-5l8-11 14-20 11-16 9-13 22-33 10-14z" fill="#F65A58"/>
<path transform="translate(1098,848)" d="m0 0 4 1 2 4 2 5 2 2 6 7 6 5v2h2l5 5v2l4 1 2 3 6 4v2l5 2 5 3 6 4 8 2v2l4 1 9 5 14 7 12 5 1-2 1 5 20 8 24 9 30 12 16 8 9 4h5v2l6 2 17 10 11 7 12 9 6 5 4 4v2l5 2 5 5 4 7v2h2l9 16 7 19 3 25-2 35-2 8-2 1-2-5h-2l-3-7h-4l1 4v17l-1 17-3 18-3 9-2 1-5-11-4-12-7-16-7-12-8-11-12-14-13-13-2-1v-2l-5-2-14-12-5-3v-2l-4-1-2-1-2 2-2-7-9-6-18-10-33-17-33-15-7-2v-2h-5l-8-4-8-3v-2l-5-1-12-7-11-6v-2l-5-1-5-4-7-4v-2l-5-2-11-8-8-9-1-3-3-3-2-6h-2l-3-6-1-9-1-1v-6l-1-4 4-21 6-23 3-13 2 2 3-14zm96 118-3 5 1 4 15 7 30 13 25 11 24 11 9 3 2-7v-5l-15-8-20-9-20-8-26-10z" fill="#1F77D0"/>
<path transform="translate(1098,848)" d="m0 0 4 1 2 4 2 5 2 2 6 7 6 5v2h2l5 5v2l4 1 2 3 6 4v2l5 2 5 3 6 4 8 2v2l4 1 9 5 14 7 12 5 1-2 1 5 20 8 18 7 1 3 9 4 3 3 2 4 2 5h-3l-1 4h-2l1 6-2 1 1 5-1 2-7-1-2-1-9 1 8 4 7 3 8 3 8 5-3 1-20-8-26-10-22-7-2 4 1 4 44 19 5 2-1 3-8-3-11-3 11 8 6 2 1 5-1 5-6 4 2 3 2 6 3 6-2 2-8-2-6-3-7-1-30-14-5-1v-2h-5l-8-4-8-3v-2l-5-1-12-7-11-6v-2l-5-1-5-4-7-4v-2l-5-2-11-8-8-9-1-3-3-3-2-6h-2l-3-6-1-9-1-1v-6l-1-4 4-21 6-23 3-13 2 2 3-14z" fill="#2761E1"/>
<path transform="translate(1328,710)" d="m0 0 3 4 4 10 1 6v17l-2 13-5 12-7 11-11 13-11 12-11 9-13 11-17 12-18 12-15 9-9 6-2 6-7 3-10 5-28 16h-9l-17-9-9-6-5-3-3-4v-2l40-21 16-8 12-7 12-6 16-10 3-5 1-7-16 9-13 8-25 14-18 10-11 6-19 10-5-1-6-12v-2h-2l-4-13v-6l5-4 14-7 22-12 28-15 18-11 22-13 20-12h2l1-3 1 2 5-2 13-6 5-2 5-5h3v-2l3-2 4 1-1 8-4 5v10h-2l-1 3-2 2-2 5-6 7-5 5-5 3-1 2 2 1-16 12-4 4v4l7 1 18-12 9-7 14-12 8-7 12-11 14-19 7-12 4-10 2-10z" fill="#65ADD2"/>
<path transform="translate(936,735)" d="m0 0 5 2 17 9 15 9 26 15 23 14 16 12 10 9 8 7 3 6 9 13 3 6 1 5-1 21-5 19-3 3h-4l-2 16-3 17-3 5h-2l-8-20-8-13v-2h-2l-6-7-11-8-7-3-14-9-15-9-28-13-20-9-13-7 3-1 7-1 2-5-1-18-4-10-7-6-3-2v-3l-4-1-19-11-12-7-11-6-7-5 4-7 7 1 13 7 18 13 17 10 10 4h12l2-3h2l1-17v-5h-2l-3-6v-2h-2z" fill="#5B5051"/>
<path transform="translate(806,598)" d="m0 0h3l9 27 10 19 13 17 13 16 7 7 11 9 11 10 3 2 4-1 2-1 3 5 9 6 17 10 14 9 5 7v2h2l3 6v2h2l1 9-2 13h-2l-2 4h-13l-16-8-10-6-18-13-15-8h-5l-3 6 14 9 12 6 22 13 4 2 1 3 8 6 5 8 1 4 1 20-5 5-11-1-15-7-16-8-14-9-7-4-18-10-8-3-1-6-10-7-8-8-11-15-5-9-4-12-1-13 4-15 1-7 5 5 10 14 12 13 12 12 10 7 3 2 4-1 1-1-1-7-4-6-13-13-7-9-5-5-7-11-6-11-9-19-3-12v-25z" fill="#B0AFB2"/>
<path transform="translate(1242,941)" d="m0 0 9 2 27 11 16 8 9 4h5v2l6 2 17 10 11 7 12 9 6 5 4 4v2l5 2 5 5 4 7v2h2l9 16 7 19 3 25-2 31h-2l-1 6-4-4-5-11-5-13-6-11-6-9-1-3-5-5-9-12-7-7-10-8-4-3v-2l-5-2-9-6-8-5-3-3-4-2-4-5v4h2l4 4v2l5 1 10 7 4 2v2l4 2v2l5 1 9 7 5 4v2h2v2h2l6 8-1 4-6-7-11-9-3-2v-2h-2v-2l-5-2-10-7v-2l-6-2-8-5-8-3-1-1 1-11-6-2-16-8-11-5-4-4-7-4-10-3-2-2-10-4-1-2 6 1 8-1 4 1v2h4l-1-8 2-1v-5l2-1 1-3h3l-5-7v-3l-12-6z" fill="#1F77D0"/>
<path transform="translate(442,1256)" d="m0 0 23 1 2 5 5-1 2-3 3-1h17l5 3 2 5 3 1 2-5 5-4h18l5 4 2 9v76l-1 1h-16l-6-1-1-3-1-65h-8l-1 2-1 66h-23l-1-5v-63h-9l-1 68-2 1h-14l-7-2-1-9z" fill="#0749A4"/>
<path transform="translate(801,689)" d="m0 0 5 5 10 14 12 13 12 12 10 7 9 6 11 6 14 8 18 10 9 6 3 1 1 3 8 6 5 8 1 4 1 20-5 5-11-1-15-7-16-8-14-9-7-4-18-10-8-3-1-6-10-7-8-8-11-15-5-9-4-12-1-13 4-15z" fill="#B0AFB2"/>
<path transform="translate(914,778)" d="m0 0 23 8 14 6 6 2v2l6 1 9 5v2h4l4 4 20 12 12 8 14 11 14 14 10 15 6 16 2 4v8l-4 22-3 5h-2l-8-20-8-13v-2h-2l-6-7-11-8-7-3-14-9-15-9-28-13-20-9-13-7 3-1 7-1 2-5-1-18-4-10-7-6-3-2z" fill="#5B5051"/>
<path transform="translate(922,903)" d="m0 0 2 1-7 6-4 8v6l3 9 5 3h8v4l-11 7-13 8-5 2v2l-4 2-9 2-3 1-2 4-8 7-4 5h-2l-1 3-8 4-10 9-10 12-7 10-6 17-2 3-3-1-3-14v-20l4-15 5-9 3-6 9-11 11-11 14-11 18-13 10-7 10-6z" fill="#5B5051"/>
<path transform="translate(1303,1030)" d="m0 0 6 1v2l3-1 13 7v2l5 2 10 7 14 16 4 7 3 3 4 7 8 16 4 10 2 23v8l-4 16-3 2-5-5-2-5 1-2h-2l-7-12-4-8-2-5h-2l-5-8v-2h-2l-7-8-9-10-2-4h-2v-2l-5-2v-2h-2v-2l-5-2-4-4-5-6-1-4-2-1h2l-1-5h1l1-7v-8l4-5 1-4-3-1z" fill="#1A85CC"/>
<path transform="translate(1026,902)" d="m0 0 5 1 5 8 4 12v12l-13 7-16 6-20 8-7 3-14 8-19 10-8 4-7-1-5-5-3-6v-8l7-11 6-5 5-5 10-6 21-9 12-5 10-6 24-11z" fill="#B0AFB2"/>
<path transform="translate(940,944)" d="m0 0 2 1-5 5h-2l-2 4-4 7v8l4 8 5 2 4 1-4 4-15 9-13 8-14 8-13 9-7 3-13 10-14 14-8 12-3 12h-2l-3-8-1-8v-14l6-15 7-12 11-12 5-5h2v-2l3-2 2-4 15-9 7-6 3-7 9-3 10-6 18-8z" fill="#5B5051"/>
<path transform="translate(806,1256)" d="m0 0 20 1 1 1v87l-2 2h-19l-6-1-2 1h-16l-5-2-3-9v-52l4-5 7-2 11 1 10 4zm-8 37-3 5v28l2 5h6l2-4v-30l-2-4z" fill="#0749A2"/>
<path transform="translate(1321,982)" d="m0 0 6 1 12 6 1 2 3 1v2l5 2 8 6 12 12 4 6 7 10v3h2l5 10 5 13 1 8 2 7v35l-4 2-4-8-1-7-4-8v-2h-2l-5-10-5-6-3-5-7-9-4-4v-2l-4-2-5-6-2-1v-2l-4-1-3-2v-2h-3l-5-5-4-2v-2h-2v-2l-5-2-4-2-2-4-5-5 1-14 2 2 4-2 1-3 4-2z" fill="#1A84CC"/>
<path transform="translate(986,871)" d="m0 0h7l16 10 12 9 2 4-3 3-30 12-14 5-17 10-28 14-7-1-5-1-4-3-3-11 1-7 6-8 7-6 21-11 22-9 14-8z" fill="#B0AFB2"/>
<path transform="translate(1006,1258)" d="m0 0h39l1 1v16l-1 1h-21l-1 18 11 1 11 4 2 4v38l-4 6-5 3-6 1h-25l-7-2v-16l1-1 20-1 1-1v-15l-15-3-5-3-3-9-1-15 3-20 4-6z" fill="#F75B59"/>
<path transform="translate(1067,1280)" d="m0 0h33l8 2 2 3 1 14v36l-1 8-7 6-8 2h-24l-10-2-5-6v-57l2-4zm12 16-2 3v32l1 3 2 1h7l2-7v-27l-2-4-2-1z" fill="#F75B59"/>
<path transform="translate(1293,1280)" d="m0 0h41l5 3 2 4v55l-6 7-11 2h-24l-7-2-5-4-2-8v-37l1-14 4-5zm19 15-4 4-1 2v30l1 3 7 1 4-1 1-3v-32l-4-4z" fill="#F65A58"/>
<path transform="translate(806,598)" d="m0 0h3l9 27 10 19 13 17 13 16 5 6-1 2h2l4 7 2 3v18l-4 10h-2l-1 3-6 1-13-13-7-9-5-5-7-11-6-11-9-19-3-12v-25z" fill="#FDFDFD"/>
<path transform="translate(721,1278)" d="m0 0h35l6 3 3 4v54l-3 5-3 2-7 1h-31l-5-2-4-5v-54l2-5zm15 16-3 2v32l2 3h8l1-1v-34l-2-2z" fill="#0648A4"/>
<path transform="translate(1358,1279)" d="m0 0h11l4 3 12-3h8l9 2 3 4 1 16v44l-1 5-7 1h-8l-5-1-1-7v-15l-1-31-1-1h-6l-3 3-2 50-3 2h-13l-3-1-1-2v-68z" fill="#F65B59"/>
<path transform="translate(1151,1280)" d="m0 0h21l1 46 1 7 1 1h7l1-1 1-16v-31l1-6h21l1 1v15l-1 38-2 8-4 5-7 3-7 1h-18l-8-2-7-5-2-5z" fill="#F55A58"/>
<path transform="translate(561,1277)" d="m0 0 29 1 6 3 2 7v32l-1 1h-23l-7-1v11l30 1 1 2v12l-1 1h-45l-4-2-3-5v-55l5-6zm8 17-3 3v10l1 1h9v-13z" fill="#0649A3"/>
<path transform="translate(614,1278)" d="m0 0h36l7 3 1 2v37l-5 1h-25l1 9 1 1 28 1 1 14-1 1h-43l-6-2-3-5v-55l4-5zm16 16-3 2v11l1 1h9l1-2v-8l-1-3z" fill="#0547A3"/>
<path transform="translate(843,1278)" d="m0 0h36l7 3 1 2v37l-3 1h-27l1 9 1 1 28 1 1 14-1 1h-44l-5-2-3-6v-55l5-5zm16 16-4 3v8l1 3h9l2-2v-8l-2-3z" fill="#0547A2"/>
<path transform="translate(894,1278)" d="m0 0h21l1 25h9l1-6 1-19h20l1 3-1 24-5 3 1 6 4 4v28l-10 1-10-1-1-22-3-3-5 1-2 3-1 21-2 1h-18l-1-26 4-6 3-4 1-3-5-2-2-2-1-14z" fill="#0747A1"/>
<path transform="translate(680,1256)" d="m0 0h15l10 1v17l-1 1-13 2v49l10 2 5 2v16l-1 1h-25l-7-1-5-6-2-8v-55l2-13 3-5 3-2z" fill="#0749A5"/>
<path transform="translate(1008,781)" d="m0 0 5 1 8 4 3 3 9 5 14 12 10 9 7 10 5 8 3 9-1 21-5 19h-3l-8-20-6-10-11-13-12-12-11-8-7-8-3-5 1-5 2-6-1-9-1-3z" fill="#1E1415"/>
<path transform="translate(996,826)" d="m0 0 11 3 8 5v2l4 2 11 8v2h2v2h2v2h2l10 13 7 16 4 12v8l-3 17-3 5h-2l-8-20-8-13v-2h-2l-6-7-15-11-14-10v-3l-4-2-2-3 2-16v-7z" fill="#1E1415"/>
<path transform="translate(1421,1280)" d="m0 0h34l2 2v12l-1 1-20 1v9l17 1 4 2 2 8v19l-2 9-5 6-7 1h-22l-7-1v-13l1-1 19-1v-9l-7-1-11-1-3-7 1-34 1-2z" fill="#F75B59"/>
<path transform="translate(1328,710)" d="m0 0 3 4 4 10 1 6v17l-2 13-5 12-7 11-11 13-11 12-11 9-13 11-5 3-2-1 5-5 3-1 2-4h2l2-4h2l1-4 2-3h2l1-5v-7l3-6v-7l1-4-4 1-9 4-8 4-1 2h-3l-1 3-7 5h-3v2l-3 1 2-4 8-6 14-12 8-7 12-11 14-19 7-12 4-10 2-10z" fill="#1B85CC"/>
<path transform="translate(1310,677)" d="m0 0h5l3 4 3 14 1 7h6v1l-8 1-8 24-8 14-9 11-12 13-14 11-16 12h-3l2-4 5-3 3-1 2-5 2-2 4-5 1-4 3-3h2l-1-10 4-5 1-8-6 1v2l-6 3-5 5-7 2-8 4v-3l8-7 10-8 13-11 15-14 6-8 1-2h-15v-1l12-1 6-5 5-11z" fill="#1C86CC"/>
<path transform="translate(1217,1265)" d="m0 0h21l1 1v15l8 1 2 3v10l-5 3-4 2v34l7 2 2 2 1 5v7h-27l-4-4-2-5-1-6v-37l-5-2-1-6v-8l6-2z" fill="#F65B59"/>
<path transform="translate(801,689)" d="m0 0 5 5 10 14 12 13 15 15 1 7 3 4 1 10-2 7-6 8 1 7-1 2 4 2-5-1-3-1-1-6-10-7-8-8-11-15-5-9-4-12-1-13 4-15z" fill="#FCFCFC"/>
<path transform="translate(1121,1257)" d="m0 0h13l7 1 1 1v60l-1 30-6 2-14-1-1-6v-86z" fill="#F75F5D"/>
<path transform="translate(1158,809)" d="m0 0 2 1 2 14 4 6 2 1v6l-7 6h-3v2l-17 10-11 6-8 3-5-5-4-8-4-15 1-4 4-3 14-7 17-9 7-3z" fill="#FDFDFD"/>
<path transform="translate(1026,902)" d="m0 0 5 1 5 8 4 12v12l-13 7-16 6-20 8-2-1 2-3v-9l-2-7-1-10-1-5 12-7 24-11z" fill="#FDFDFD"/>
<path transform="translate(865,740)" d="m0 0 7 1 13 7 18 13 17 10 13 6 15 8 14 7 6 4 10 5 5 2v2l5 1 16 9 18 11 13 12 8 8 9 13 7 16 2 10h-2v3l-3-1-4-11-4-9-7-11-9-10-8-8-16-12-28-17-4-3v-2h-4l-3-3-8-4-4-1v-2l-9-2-13-6-15-5-12-6-15-9-14-8-11-6-7-5z" fill="#F65A58"/>
<path transform="translate(860,948)" d="m0 0h2l1 2 1 13 2 7-1 4h-2l-2 5-3 1-1 3-5 5-3 4h-2l-2 5-2 3h-2l-2 4-9 15-4 11-3 5h-2l-3-12v-20l4-15 5-9 9-11 7-8 10-8z" fill="#1E1415"/>
<path transform="translate(875,989)" d="m0 0h5l1 4h-2l1 12 1 8-2 4-1 3-14 10-15 15-8 12-3 12h-2l-3-8v-18l4-13 5-10 10-13 7-7 10-8z" fill="#1F1516"/>
<path transform="translate(1257,1280)" d="m0 0h19l1 1 1 68-1 1h-21l-1-61 1-8z" fill="#F55B59"/>
<path transform="translate(1173,852)" d="m0 0 7 1 2 8-1 11 7 4v3h-2l-2 4-14 10-2 1h-6l-22-12-9-7v-3l20-9 19-10z" fill="#FDFDFD"/>
<path transform="translate(986,871)" d="m0 0h7l16 10 12 9 2 4-3 3-30 12-7 3h-3l-4-5-3-10v-15l-2-2z" fill="#FDFDFD"/>
<path transform="translate(1298,1008)" d="m0 0 5 4v2l6 2 1 3 5 2 10 7 7 4 5 5 7 5v2l4 2 8 8 9 12v2l3 1 4 7 9 16 8 19 4 8 2-5 2 4-2 8-2 1-2-5h-2l-3-7h-4l1 4v17l-1 17-3 18-3 9-2 1-5-11-2-5v-5l2 2 4 11v2h3v-6l2-5 2-19v-13l-1-19-5-15-4-9-5-9-11-16-3-4v-2l-4-2-11-10h3l13 11v2l4 2-2-4-3-4v-2h-2v-2h-2v-2l-4-2-8-7-7-3-4-4v-2l-5-2-11-7-3-1-4-4v-2h-2z" fill="#2760E1"/>
<path transform="translate(1225,809)" d="m0 0h2v7l-4 6-13 8-12 7-11 6-17 9-3-1 15-9 1-3 6-2-4-1-16 9-16 8-14 8h-2l-1 3-7 2-2 3h-5l-7-8-6-14-1-9h1l3 10v3h2l5 9 2 5 6-1 46-25 27-15 13-8z" fill="#2466DC"/>
<path transform="translate(1117,925)" d="m0 0 10 5 10 8 6 3 7 4 6 3v2l6 2 5 4 16 8 9 3-1 5h-3l-38-19-11-8-3-2v-2l-4-1v-2l-3-1v-2h-3v-2h-3v-2h-2v-2l-4-2z" fill="#0447A4"/>
<path transform="translate(1298,1011)" d="m0 0 1 2h2l4 4v2l5 1 10 7 4 2v2l4 2v2l5 1 9 7 5 4v2h2v2h2l6 8-1 4-6-7-11-9-3-2v-2h-2v-2l-5-2-10-7v-2l-6-2-8-5-8-3-1-1v-6z" fill="#0447A4"/>
<path transform="translate(1257,1257)" d="m0 0h20l1 1v11l-1 2h-21v-13z" fill="#F45C5A"/>
<path transform="translate(889,961)" d="m0 0h5l-1 8-7 8-13 8-3 1v-2l4-4-1-1-3 2 2-5 8-8 7-6z" fill="#FDFDFD"/>
<path transform="translate(1184,833)" d="m0 0 2 1-2 3-14 7-18 10-12 6-3 1-1 3-7 2-2 3h-5l-7-8-6-14-1-9h1l3 10v3h2l5 9 2 5 6-1 46-25z" fill="#236CDB"/>
<path transform="translate(1212,871)" d="m0 0h3v2l-7 3-10 5-28 16h-9l-17-9-9-6-5-3-3-4v-2l4-1 4 7 14 9 13 7 9-1 24-14 14-8z" fill="#236DD9"/>
<path transform="translate(1091,868)" d="m0 0h2v6l1 4 1 13-1 2h-7l-3 1 1-7 4-17z" fill="#094AA8"/>
<path transform="translate(1310,677)" d="m0 0h5l3 4 3 14 1 7h6v1h-10l-4-20-4 2-5 12-3 3h-2v2l-4-1 6-5 5-11z" fill="#2863E0"/>
<path transform="translate(1340,1050)" d="m0 0 4 2 7 6 4 6 7 10 7 11 4 7 5 15-1 3-6-13-8-17-3-4v-2l-3-1-7-11-10-10z" fill="#1F79D0"/>
<path transform="translate(1237,1035)" d="m0 0 6 1 10 6 7 3 8 4 6 4v2h3l2 4-6-2-18-10-18-9z" fill="#2A67DF"/>
<path transform="translate(1364,1007)" d="m0 0 5 2 5 5 4 7v2h2l9 16 7 19 1 7-2 2-3-10v-6h-2l-4-12-8-14-14-17z" fill="#2861E2"/>
<path transform="translate(1254 1e3)" d="m0 0 6 2 26 12 4 2-4 2-12-4-16-8-2-2-4-1v-2z" fill="#2866DB"/>
<path transform="translate(1381,1136)" d="m0 0h1v17l-3 18-3 9-2 1-5-11-2-5v-5l2 2 4 11v2h3v-6l2-5z" fill="#2861E2"/>
<path transform="translate(858,733)" d="m0 0h5l3 3 6 3 3 4-5-2h-5l-4 6-5-2-2-2 4-3z" fill="#FDFDFD"/>
<path transform="translate(1234,977)" d="m0 0 7 2 2 2 13 4 9 6-3 1-30-12 2-1z" fill="#2968DE"/>
<path transform="translate(1334,728)" d="m0 0 2 2v17l-1 7-3-2v-20z" fill="#2966DF"/>
<path transform="translate(889,961)" d="m0 0h5l-1 8-7 8-13 8-3 1v-2l6-4 9-5 5-6 1-5-5 2h-3l4-4z" fill="#B0AFB2"/>
<path transform="translate(1237,755)" d="m0 0h2v3l-14 8-13 8-5 3-2-1 27-18z" fill="#1F76D4"/>
<path transform="translate(1396,1067)" d="m0 0h1l2 18-2 29h-1v-26l-1-20z" fill="#2861E2"/>
<path transform="translate(1031,888)" d="m0 0h2l9 15 7 18v2h2l2-4-1 8-4-2-4-11-5-12-8-12z" fill="#5B5051"/>
<path transform="translate(1312,682)" d="m0 0 3 1 3 16v4l2 1-3 2-2-9-1-8-2-1-4 3 1-6z" fill="#207ACF"/>
<path transform="translate(1108,838)" d="m0 0h1l3 10v3h2l5 9 2 5 3 2-5-1-5-7-6-15z" fill="#307FD5"/>
<path transform="translate(1331,748)" d="m0 0 4 8-4 12-3 1-1-3 4-9v-2l-1-5z" fill="#247DD0"/>
<path transform="translate(1297,1020)" d="m0 0 4 1 7 3 11 6 5 6-5-2-13-8-9-5z" fill="#2861E2"/>
<path transform="translate(1275,784)" d="m0 0 2 1-4 6h-3l-1 3-7 5h-3v2l-3 1 2-4 8-6z" fill="#2C8ECD"/>
<path transform="translate(1328,710)" d="m0 0 3 4 1 6-3 3h-3v-8z" fill="#2060CE"/>
<path transform="translate(1129,872)" d="m0 0h2l4 7 10 7-1 2-9-6-5-3-3-4v-2z" fill="#347ED7"/>
<path transform="translate(1192,837)" d="m0 0 3 1-16 9-9 5-3-1 13-8 7-3z" fill="#1F76D3"/>
<path transform="translate(1314,707)" d="m0 0h3l-1 10-2 4-2-1 1-4-2-1v-3h2z" fill="#2375D4"/>
<path transform="translate(1195,1016)" d="m0 0 6 1 17 9-3 1-19-9z" fill="#1156B0"/>
<path transform="translate(1162,853)" d="m0 0 3 1-19 10-2-1 4-4 10-4z" fill="#236BDB"/>
<path transform="translate(1254 1e3)" d="m0 0 6 2 4 3v3l-6-2-2-2-4-1v-2z" fill="#2C6ADD"/>
<path transform="translate(1307,688)" d="m0 0 1 3-5 8-3 1v2l-4-1 6-5 3-6z" fill="#2861E2"/>
<path transform="translate(1112,825)" d="m0 0h7l-1 2-8 4-2 7h-1v-7l3-5z" fill="#246ADA"/>
<path transform="translate(1298,1075)" d="m0 0 4 2 12 9 2 3-5-2-13-11z" fill="#2861E2"/>
<path transform="translate(1234,977)" d="m0 0 7 2 3 3v2l-10-3-2-2h2z" fill="#2C69DF"/>
<path transform="translate(1212,930)" d="m0 0 7 1 11 4v2l-6-1-12-5z" fill="#0C53AF"/>
<path transform="translate(1095,850)" d="m0 0h1l-1 10-2 4h-1v-8l2-5z" fill="#0A4EAC"/>
<path transform="translate(1221,1028)" d="m0 0 6 1 7 4 5 4-5-1-13-7z" fill="#0B51B0"/>
<path transform="translate(1212,871)" d="m0 0h3v2l-7 3-8 4-3-1 12-7z" fill="#2373D7"/>
<path transform="translate(1230,807)" d="m0 0 2 3 4 2-3 4h-4z" fill="#FDFDFD"/>
<path transform="translate(1336,1045)" d="m0 0 4 2 12 10-1 2-8-7-7-6z" fill="#2861E2"/>
<path transform="translate(882,967)" d="m0 0 1 2-6 5-6 7-1-2 7-8z" fill="#B2ACAF"/>
<path transform="translate(1347,992)" d="m0 0 5 2 8 7-1 2-11-8z" fill="#2861E2"/>
<path transform="translate(1184,833)" d="m0 0 2 1-2 3-8 4-2-1 3-3z" fill="#246ADB"/>
<path transform="translate(1173,839)" d="m0 0 2 1-3 3-6 3h-2l1-3z" fill="#226ED9"/>
<path transform="translate(1046,919)" d="m0 0h2l1 4h2l2-4-1 8-4-2z" fill="#645455"/>
<path transform="translate(1293,712)" d="m0 0h2l-1 4-1 2h-2v2l-3-1 3-5z" fill="#2A74D8"/>
</svg>
